<mxfile host="app.diagrams.net" agent="Mozilla/5.0 (Macintosh; Intel Mac OS X 10_15_7) AppleWebKit/537.36 (KHTML, like Gecko) Chrome/137.0.0.0 Safari/537.36" version="27.1.4">
  <diagram id="2vHupQ7qpo2H4J2kef7C" name="Page-1">
    <mxGraphModel dx="1678" dy="907" grid="1" gridSize="10" guides="1" tooltips="1" connect="1" arrows="1" fold="1" page="1" pageScale="1" pageWidth="1700" pageHeight="1100" math="0" shadow="0">
      <root>
        <mxCell id="0" />
        <mxCell id="1" parent="0" />
        <mxCell id="U2U7nHYtYI2KhTXJakb2-7" value="AWS Cloud" style="points=[[0,0],[0.25,0],[0.5,0],[0.75,0],[1,0],[1,0.25],[1,0.5],[1,0.75],[1,1],[0.75,1],[0.5,1],[0.25,1],[0,1],[0,0.75],[0,0.5],[0,0.25]];outlineConnect=0;gradientColor=none;html=1;whiteSpace=wrap;fontSize=12;fontStyle=0;shape=mxgraph.aws4.group;grIcon=mxgraph.aws4.group_aws_cloud_alt;strokeColor=#232F3E;fillColor=none;verticalAlign=top;align=left;spacingLeft=30;fontColor=#232F3E;dashed=0;movable=1;resizable=1;rotatable=1;deletable=1;editable=1;locked=0;connectable=1;" parent="1" vertex="1">
          <mxGeometry x="440" y="500" width="930" height="1240" as="geometry" />
        </mxCell>
        <mxCell id="i0sY7tSdIwuUhT-nB4eU-6" value="VPC" style="points=[[0,0],[0.25,0],[0.5,0],[0.75,0],[1,0],[1,0.25],[1,0.5],[1,0.75],[1,1],[0.75,1],[0.5,1],[0.25,1],[0,1],[0,0.75],[0,0.5],[0,0.25]];outlineConnect=0;gradientColor=none;html=1;whiteSpace=wrap;fontSize=12;fontStyle=0;shape=mxgraph.aws4.group;grIcon=mxgraph.aws4.group_vpc;strokeColor=#248814;fillColor=none;verticalAlign=top;align=left;spacingLeft=30;fontColor=#AAB7B8;dashed=0;" parent="1" vertex="1">
          <mxGeometry x="490" y="680" width="830" height="890" as="geometry" />
        </mxCell>
        <mxCell id="i0sY7tSdIwuUhT-nB4eU-19" value="Internet Gateway" style="outlineConnect=0;fontColor=#232F3E;gradientColor=none;fillColor=#5A30B5;strokeColor=none;dashed=0;verticalLabelPosition=bottom;verticalAlign=top;align=center;html=1;fontSize=12;fontStyle=0;aspect=fixed;pointerEvents=1;shape=mxgraph.aws4.internet_gateway;" parent="1" vertex="1">
          <mxGeometry x="540" y="730" width="73" height="73" as="geometry" />
        </mxCell>
        <UserObject label="Route53" tooltip="Route53 Hosted Zone" id="i0sY7tSdIwuUhT-nB4eU-23">
          <mxCell style="points=[[0,0,0],[0.25,0,0],[0.5,0,0],[0.75,0,0],[1,0,0],[0,1,0],[0.25,1,0],[0.5,1,0],[0.75,1,0],[1,1,0],[0,0.25,0],[0,0.5,0],[0,0.75,0],[1,0.25,0],[1,0.5,0],[1,0.75,0]];outlineConnect=0;fontColor=#232F3E;gradientColor=#945DF2;gradientDirection=north;fillColor=#5A30B5;strokeColor=#ffffff;dashed=0;verticalLabelPosition=bottom;verticalAlign=top;align=center;html=1;fontSize=12;fontStyle=0;aspect=fixed;shape=mxgraph.aws4.resourceIcon;resIcon=mxgraph.aws4.route_53;" parent="1" vertex="1">
            <mxGeometry x="1242" y="550" width="78" height="79" as="geometry" />
          </mxCell>
        </UserObject>
        <mxCell id="i0sY7tSdIwuUhT-nB4eU-31" value="CloudWatch" style="points=[[0,0,0],[0.25,0,0],[0.5,0,0],[0.75,0,0],[1,0,0],[0,1,0],[0.25,1,0],[0.5,1,0],[0.75,1,0],[1,1,0],[0,0.25,0],[0,0.5,0],[0,0.75,0],[1,0.25,0],[1,0.5,0],[1,0.75,0]];points=[[0,0,0],[0.25,0,0],[0.5,0,0],[0.75,0,0],[1,0,0],[0,1,0],[0.25,1,0],[0.5,1,0],[0.75,1,0],[1,1,0],[0,0.25,0],[0,0.5,0],[0,0.75,0],[1,0.25,0],[1,0.5,0],[1,0.75,0]];outlineConnect=0;fontColor=#232F3E;gradientColor=#F34482;gradientDirection=north;fillColor=#BC1356;strokeColor=#ffffff;dashed=0;verticalLabelPosition=bottom;verticalAlign=top;align=center;html=1;fontSize=12;fontStyle=0;aspect=fixed;shape=mxgraph.aws4.resourceIcon;resIcon=mxgraph.aws4.cloudwatch_2;" parent="1" vertex="1">
          <mxGeometry x="990" y="1610" width="78" height="78" as="geometry" />
        </mxCell>
        <mxCell id="U2U7nHYtYI2KhTXJakb2-13" style="edgeStyle=orthogonalEdgeStyle;rounded=0;orthogonalLoop=1;jettySize=auto;html=1;entryX=0.5;entryY=0;entryDx=0;entryDy=0;entryPerimeter=0;" parent="1" source="U2U7nHYtYI2KhTXJakb2-12" target="i0sY7tSdIwuUhT-nB4eU-23" edge="1">
          <mxGeometry relative="1" as="geometry" />
        </mxCell>
        <mxCell id="U2U7nHYtYI2KhTXJakb2-14" style="edgeStyle=orthogonalEdgeStyle;rounded=0;orthogonalLoop=1;jettySize=auto;html=1;entryX=0.5;entryY=0;entryDx=0;entryDy=0;entryPerimeter=0;" parent="1" source="U2U7nHYtYI2KhTXJakb2-12" target="i0sY7tSdIwuUhT-nB4eU-59" edge="1">
          <mxGeometry relative="1" as="geometry">
            <mxPoint x="904" y="580" as="targetPoint" />
            <Array as="points">
              <mxPoint x="904" y="519" />
              <mxPoint x="905" y="519" />
            </Array>
          </mxGeometry>
        </mxCell>
        <mxCell id="U2U7nHYtYI2KhTXJakb2-12" value="User" style="outlineConnect=0;fontColor=#232F3E;gradientColor=none;fillColor=#232F3E;strokeColor=none;dashed=0;verticalLabelPosition=bottom;verticalAlign=top;align=center;html=1;fontSize=12;fontStyle=0;aspect=fixed;pointerEvents=1;shape=mxgraph.aws4.user;" parent="1" vertex="1">
          <mxGeometry x="864" y="380" width="78" height="78" as="geometry" />
        </mxCell>
        <mxCell id="i0sY7tSdIwuUhT-nB4eU-58" value="" style="group" parent="1" vertex="1" connectable="0">
          <mxGeometry x="869.5" y="720" width="94.5" height="83" as="geometry" />
        </mxCell>
        <mxCell id="i0sY7tSdIwuUhT-nB4eU-59" value="Application Load &lt;br&gt;Balancer" style="outlineConnect=0;dashed=0;verticalLabelPosition=bottom;verticalAlign=top;align=center;html=1;shape=mxgraph.aws3.application_load_balancer;fillColor=#F58534;gradientColor=none;" parent="i0sY7tSdIwuUhT-nB4eU-58" vertex="1">
          <mxGeometry y="11" width="69" height="72" as="geometry" />
        </mxCell>
        <mxCell id="i0sY7tSdIwuUhT-nB4eU-60" value="" style="points=[[0,0,0],[0.25,0,0],[0.5,0,0],[0.75,0,0],[1,0,0],[0,1,0],[0.25,1,0],[0.5,1,0],[0.75,1,0],[1,1,0],[0,0.25,0],[0,0.5,0],[0,0.75,0],[1,0.25,0],[1,0.5,0],[1,0.75,0]];outlineConnect=0;fontColor=#232F3E;gradientColor=#F54749;gradientDirection=north;fillColor=#C7131F;strokeColor=#ffffff;dashed=0;verticalLabelPosition=bottom;verticalAlign=top;align=center;html=1;fontSize=12;fontStyle=0;aspect=fixed;shape=mxgraph.aws4.resourceIcon;resIcon=mxgraph.aws4.network_firewall;" parent="i0sY7tSdIwuUhT-nB4eU-58" vertex="1">
          <mxGeometry x="54.5" width="40" height="40" as="geometry" />
        </mxCell>
        <mxCell id="3YkjBhUe68sp3YTSF8YO-7" value="Athena" style="sketch=0;points=[[0,0,0],[0.25,0,0],[0.5,0,0],[0.75,0,0],[1,0,0],[0,1,0],[0.25,1,0],[0.5,1,0],[0.75,1,0],[1,1,0],[0,0.25,0],[0,0.5,0],[0,0.75,0],[1,0.25,0],[1,0.5,0],[1,0.75,0]];outlineConnect=0;fontColor=#232F3E;fillColor=#8C4FFF;strokeColor=#ffffff;dashed=0;verticalLabelPosition=bottom;verticalAlign=top;align=center;html=1;fontSize=12;fontStyle=0;aspect=fixed;shape=mxgraph.aws4.resourceIcon;resIcon=mxgraph.aws4.athena;" vertex="1" parent="1">
          <mxGeometry x="1120" y="1610" width="78" height="78" as="geometry" />
        </mxCell>
        <mxCell id="3YkjBhUe68sp3YTSF8YO-8" value="" style="group" vertex="1" connectable="0" parent="1">
          <mxGeometry x="930" y="880" width="340" height="640" as="geometry" />
        </mxCell>
        <mxCell id="i0sY7tSdIwuUhT-nB4eU-51" value="Availability zone 2" style="outlineConnect=0;gradientColor=none;html=1;whiteSpace=wrap;fontSize=12;fontStyle=0;shape=mxgraph.aws4.group;grIcon=mxgraph.aws4.group_availability_zone;strokeColor=#545B64;fillColor=none;verticalAlign=top;align=left;spacingLeft=30;fontColor=#545B64;dashed=1;movable=1;resizable=1;rotatable=1;deletable=1;editable=1;locked=0;connectable=1;" parent="3YkjBhUe68sp3YTSF8YO-8" vertex="1">
          <mxGeometry width="340" height="640" as="geometry" />
        </mxCell>
        <mxCell id="wZWly8G9XYtV8ZJdP7As-14" value="" style="group" parent="3YkjBhUe68sp3YTSF8YO-8" vertex="1" connectable="0">
          <mxGeometry x="40" y="39" width="260" height="560" as="geometry" />
        </mxCell>
        <mxCell id="i0sY7tSdIwuUhT-nB4eU-52" value="Private subnet" style="points=[[0,0],[0.25,0],[0.5,0],[0.75,0],[1,0],[1,0.25],[1,0.5],[1,0.75],[1,1],[0.75,1],[0.5,1],[0.25,1],[0,1],[0,0.75],[0,0.5],[0,0.25]];outlineConnect=0;gradientColor=none;html=1;whiteSpace=wrap;fontSize=12;fontStyle=0;shape=mxgraph.aws4.group;grIcon=mxgraph.aws4.group_security_group;grStroke=0;strokeColor=#147EBA;fillColor=#E6F2F8;verticalAlign=top;align=left;spacingLeft=30;fontColor=#147EBA;dashed=0;" parent="wZWly8G9XYtV8ZJdP7As-14" vertex="1">
          <mxGeometry y="250" width="260" height="310" as="geometry" />
        </mxCell>
        <mxCell id="i0sY7tSdIwuUhT-nB4eU-53" value="Public subnet" style="points=[[0,0],[0.25,0],[0.5,0],[0.75,0],[1,0],[1,0.25],[1,0.5],[1,0.75],[1,1],[0.75,1],[0.5,1],[0.25,1],[0,1],[0,0.75],[0,0.5],[0,0.25]];outlineConnect=0;gradientColor=none;html=1;whiteSpace=wrap;fontSize=12;fontStyle=0;shape=mxgraph.aws4.group;grIcon=mxgraph.aws4.group_security_group;grStroke=0;strokeColor=#248814;fillColor=#E9F3E6;verticalAlign=top;align=left;spacingLeft=30;fontColor=#248814;dashed=0;" parent="wZWly8G9XYtV8ZJdP7As-14" vertex="1">
          <mxGeometry width="260" height="211" as="geometry" />
        </mxCell>
        <mxCell id="i0sY7tSdIwuUhT-nB4eU-54" value="NAT Gateway" style="outlineConnect=0;dashed=0;verticalLabelPosition=bottom;verticalAlign=top;align=center;html=1;shape=mxgraph.aws3.vpc_nat_gateway;fillColor=#F58536;gradientColor=none;" parent="wZWly8G9XYtV8ZJdP7As-14" vertex="1">
          <mxGeometry x="40" y="71" width="67.08" height="70" as="geometry" />
        </mxCell>
        <mxCell id="i0sY7tSdIwuUhT-nB4eU-56" value="Aurora Postgres" style="points=[[0,0,0],[0.25,0,0],[0.5,0,0],[0.75,0,0],[1,0,0],[0,1,0],[0.25,1,0],[0.5,1,0],[0.75,1,0],[1,1,0],[0,0.25,0],[0,0.5,0],[0,0.75,0],[1,0.25,0],[1,0.5,0],[1,0.75,0]];outlineConnect=0;fontColor=#232F3E;gradientColor=#4D72F3;gradientDirection=north;fillColor=#3334B9;strokeColor=#ffffff;dashed=0;verticalLabelPosition=bottom;verticalAlign=top;align=center;html=1;fontSize=12;fontStyle=0;aspect=fixed;shape=mxgraph.aws4.resourceIcon;resIcon=mxgraph.aws4.aurora;" parent="wZWly8G9XYtV8ZJdP7As-14" vertex="1">
          <mxGeometry x="34.539999999999964" y="450" width="78" height="78" as="geometry" />
        </mxCell>
        <mxCell id="i0sY7tSdIwuUhT-nB4eU-61" value="" style="outlineConnect=0;fontColor=#232F3E;gradientColor=none;fillColor=#3334B9;strokeColor=none;dashed=0;verticalLabelPosition=bottom;verticalAlign=top;align=center;html=1;fontSize=12;fontStyle=0;aspect=fixed;pointerEvents=1;shape=mxgraph.aws4.rds_proxy;" parent="wZWly8G9XYtV8ZJdP7As-14" vertex="1">
          <mxGeometry x="34" y="314" width="78" height="78" as="geometry" />
        </mxCell>
        <mxCell id="wZWly8G9XYtV8ZJdP7As-10" value="" style="group" parent="wZWly8G9XYtV8ZJdP7As-14" vertex="1" connectable="0">
          <mxGeometry x="145.5" y="291" width="105.5" height="101" as="geometry" />
        </mxCell>
        <mxCell id="i0sY7tSdIwuUhT-nB4eU-55" value="ECS Service" style="points=[[0,0,0],[0.25,0,0],[0.5,0,0],[0.75,0,0],[1,0,0],[0,1,0],[0.25,1,0],[0.5,1,0],[0.75,1,0],[1,1,0],[0,0.25,0],[0,0.5,0],[0,0.75,0],[1,0.25,0],[1,0.5,0],[1,0.75,0]];outlineConnect=0;fontColor=#232F3E;gradientColor=#F78E04;gradientDirection=north;fillColor=#D05C17;strokeColor=#ffffff;dashed=0;verticalLabelPosition=bottom;verticalAlign=top;align=center;html=1;fontSize=12;fontStyle=0;aspect=fixed;shape=mxgraph.aws4.resourceIcon;resIcon=mxgraph.aws4.fargate;" parent="wZWly8G9XYtV8ZJdP7As-10" vertex="1">
          <mxGeometry y="23" width="78" height="78" as="geometry" />
        </mxCell>
        <mxCell id="3YkjBhUe68sp3YTSF8YO-4" value="" style="shape=image;verticalLabelPosition=bottom;labelBackgroundColor=default;verticalAlign=top;aspect=fixed;imageAspect=0;image=data:image/png,iVBORw0KGgoAAAANSUhEUgAAAlgAAAJYCAMAAACJuGjuAAADAFBMVEX////9/v75+fny8vLn5+fa2trMzMy5ubmsrKygoKCQkJCFhYV5eXlubm5kZGRdXV1ZWVlUVFRQUFBOTk5MTExKSkpISEhNTU1WVlZjY2Nra2uGhoaXl5elpaW1tbXJycnz8/P8+/vx8fHm5ubX19fGxsaoqKiIiIhaWlpSUlJeXl6tra27u7vb29v7/Pzl5eXT09O/v7+Tk5OBgYFwcHBHR0dJSUlycnKcnJyxsbHd3d3v7+/6+vrh4eHKysqzs7OZmZliYmJYWFj09PTu7u7Z2dm9vb2ioqJpaWmdnZ3V1dXs7Oz9/f3g4ODDxMSjo6P19fWCgoJnZ2fj4+P39/e3t7eUlJRzc3PCwsJbW1vp6en4+Pi0tLT29vaqqqp8fHzBwcHe3t5gYGDf39+rq6t+fn6vr6/i4uLAwMCOjo7Q0NCLi4tPT0/r6+uYmJh1dXXR0dGMjIzOzs5IRkZPcnuGx9fg8fZHSEhAV1wmlLAgp8lEsc2p2+j0+fpIR0ZDUVQqi6Qfp8ofp8kmqcpqwdfL5OpIR0dFTE0ugZUfpskgp8gfpsg2rMqPytnp8fMzdocgpcYgpsgjpsdZs8rB3eU4anchocIwqcY9XWYkm7l3eHhETlGg0N00c4Igo8TY6u45Z3Iin7622uPS0tMkmrfr9vlBVFknkq0fqMphvdT//v4rh59GSUowfJDw+Po3cYBMttE8sc+u3uookasqqsqO0uMjqMlxxNrk9PhZvNXV7vRGtdLA5e81r876/f4/W2Ell7OU0+P1+/yDzd/u+PothZsxeYthwNlmZmY2bn12dnY7Y2xLuNPP6/LG6PApjae84+0tgpi04e03bHowrc0jnbtAWF88YGlSutTd8PUiqMl9yt74/P2h2ug+n7dnbnCRxNDa7/Sk2OWSkpKKz+Ho9fma1eR0yN1JSEdpfIDT3uBWlaQ9q8b+/v/Ays03lq11tseNucSoxs7M1thUnbDd5OVqoa8um7auwcWGp7BAlKmSsLc1kaj5+PiVrbN1pLBnp3n8AAAfw0lEQVR4AezBgxHEAAAAsEdtG/tv2SV6TvLhBQAAAAAAAAAAAAAAAAAAAAAAAAAAAAAAAAAAAAAAAAAAAAAAAAAAAAAAAAAAAAAAAAAAAAAAAAAAAAAAAAAAAAAAAAAAAAAAAAAAAAAAAAAAAAAAAAAAAAAAAAAAAAAAAPD9/YMwipM0y4uyqpu264dxmsZh7pZ63Yr9OK87DB726kJBdSSIwnCCjAfvShjHSXA5OOPu7u4+66+/7r57L0Tge4S/u6pGfbzhQ/gDwdBweDDSJ3ijsvhDBbfL6VBsQl9vT3cs3pGwmE3/1KEtOZpKZ8LZXN7rkEVGAP0ZUIG5HLZib6k8UqnWeEOWMNfHxidywuSUy1Mg0J8AiImyw5vPZcOZdGA6ybX9EV+bmZ2bH8grMiMA9C8AIFFayC12Li0b6XetTK+uDUWEqJsA/MsOTFbykfWMdeZXW7yN36iH1je3nAwA/WcAc25tzoe2dwzQdMVs3d3bj3oI+O8dwKSFzfWDinmFa+OnE/HB/UORQB8CEJW+7tCRj9Ox49X4Xl5iwAeFYFNCNl6ZbunN5bOESvtTDKCPAXB7IyeJU10m5c3ps/ND9pFKsKn9iYtUjWtJO5fDEa8I0MeEwlRfeGmU19mvGk2vF2UCfTwAuxoYvj5uuV81e3PuKIAaAOTcHwqe6ugCWsP7MqEBJQqHt7HEDtcyaqvlc4lADQOSzu/ufZwOJFPDtw1sAZq6Hf+uhPHxyw+RwwKowVBQHkfMWj+JG097VwyNLmF/Xpvhjb6srN0LHlBT4KXYtZ3U8Ii97vbJoCaA2D9vNXHGZQ5FHNRMhavB9I5Gb+B9eIGBmmaqd81s0Btoudt/ATWbM6fFoL7ZN6VATQX3/viR8S7iSn3dxkgNcL8PL2sraC3d41CjBNtav05yRpK8LCkFUg3rv9PQ1zJ98iyBVGKfuFwxzra6nLCTupgwvqyVbfXsBKlIWawb42vxqW6FVAcm7FY1sLqDn0ogVYGu5rd5TveWu2wF0gJ43uemVZ6x+oQDpDoUbGevPKdr050CA2kE3OcjJk49r+FJ0ggm7I5y+uV7uhVJSyA/zyY5dZzOCQXSDvH2Mx+nU4EJCaQxn3/x5Vc813zJpd4XkJZAegtwenQaX6Bv2LsPv6jO7H/g5yJ2ARnmnkGwMEhxQCYkcsYCYsFgYVRqDCAholjJKvD6hmSSmPDoThJmi7Mlhe2bbqpZu6ZY0kzvfX+/9G/vvefy3TXVMtx7nvvMjO8/YV4fmOdzz53nqKan+4orA1ddfQ3I1jRyLKFyFk1tgWijzcpPI+VytfXa63qF2Lb9u37J34IZPlQQpeXP0iCqVM9pI1RNT/D6G24UfQER+t73fwDSaEMzOwjVRG0rqyGKzM53oXqCPT/cIcKBz4kf/fgnXpCjYm0Bobpcmas1iBJl62tRQcHgT28ycmUQoZv/5AcggXZhjROVRslTEyAqVM31EKon2H3Lrb3hwB+JHRz/tPj/XTFwjK8C9WlL+n1oULAQ9vYFTgqL0M3cJy2taLSTUH2+/iUaKK5sagEpmautP/u8EAa+zDhpsdbDlpVthFGBCoYngNKyFzvQoGIhDIm+wFf0idD3fn4NcKnb5CKMFo65paCwuhodlRTs+cUvRTjwdUL8aPuvgIU7NwOjiW9aHahK25hBqKRg8Ne/MXL1DX0ifNVvy8B62QtTCaMKJd2mgZK8lSmEauq+5XajEH4bIW7+/h1gtdXTdIw2VHCxHxTUXJiKiuq+8667A6d044/u+dVOsJI3t5YwCqXPTADlVC/uQDX1BH92rxCBUxOhq37rBetU5KUGMSo5RlaDYkovcCqbq/vuD4lw4HRuvPn7D4BVEjc5MVo5LygFpVTl+1BRwZ4HjUJ4ep+3w8utekA8HaOYL78KFNJUg6oKbh0ohGciwg99VwPz3PwPiJnVNIEyEtuRAXsh/AoR2vWwF8yqWO7BaNeeqEyuWlFZW+/8XW/g7IR373kAzGnqdCKeSxZ/rpQvhF8h9u7bD2YU9WNMaG8CBVw2DVHhQhgW4cDZEuEDB2HQtPJawthQUwW2W5CJqHghjEDo0GENBsc9vJEwVmSWgs2yNvjUL4QRCD1y9aMwGC15HowdvlEVYKv6uToqq/uxx41CGBmx+8hRiFzpRS6MJfriZrCRO8+FquoZKISRu3vbseMQqcTROsaWtDVesI3W4FG5ED4hRGAwIi+Hq/sx5nimamCXSVNULoRPGr/1GpynLodIFGcQxhxf4zCwydCnCVUVpGeM33oNUiiSxw5a+TjCGESLVoMtEk+QwoXwWaMQDlrouefhLPmXpRDGJGqtAhtUd6Kyek4WwsEKHXphJ5wN7/CxGKt845tBOm+eU+FCeO2LvQFz+na9pMGZuWemEsasjpUayJabrvDB/fqXhQiYJB55RYMzKRvhwVjW2AWSzV5EqKqThdBssh7W4PQS8hwY06gkEaSqyFS5EL5qFELz+l47Q7LqF3ZgjKMN9SCRNsKpciF8vTccsELotas1OLWWxS6Mea45INFtjais7jeMQmgNcbpkVc9wYhwoyAFpFvST+oXQGqdOVvVcJ8YDah8CkvgX+tQvhBYRpzpnVX/HifFBX6OBHBvnK1wIB26DtNK3P3WonqtjvEjJASlKx5C6hXDgNkhLiUe+5Ulpywwnxg2aVgESaHk6KirY/aZRCC3Wt+swfE3zSBfGEedEkCAnBVVl3AYZDljuxkPPw1ckLE/DuJK8Dti1jCbkY349QIAhWKHnDsKXlOV1EMYVuqgMuFV2qFsIbxAiwCL01ttwkrvQgfEmdRgwqyohNCi7HoBH6Kn98AfeOR6MOzRmCPfJ3YcGZdcDsNl3HAb4h6diHNJXAqvVbaio7jeN9QB83nn3KHxOu3Q+xiNalAiMvOMJldRzshCy2bbnPQAoT8E4tVwDPkvmq3pw/7wQBpjtfl+DJcmEcaptKbAp6ySF1wOEA7xCr72yKoMwXtEMP3DpSlV6PQCzcO/v/18Q41fKLGCSkEkKrwfgz9Xrz1IQ4xfN9av/D4vhNkhmYXHTqxTEeJayCliUbSJV1wP0BvhztePJ+4LI4Nwpqzhd4dsguQnx8vXBHoxvbeuAgfciUrMQ3m/si+PW++K1W3sw3k0ABrMa47kQPv5GN55TmwjWW0gK3wbJXwi7g8jh3MSwqfZcITznRBZYrUFXcUJ45+9kFsJzHJPAYi2thPagAYg+JENcFkIagD4f0gC0C3W6wVpbPCgdkc/RuOhE5kUj16xsGD61YWLhyItqpo9L1ZG+ui8ulgshoSu9dvPoC0YWTmyYOrxhZeHI8fn9GY0Onz3xSlkKlvLLfl+GsGNe64zhG9ctaHFrcJLmrmjKuXRk+7w0ImM9QGwXQkJPRv4lubOqvvoZeOtL67omzm1NdiChbCPAUonJKBHpU1onlCc2a/DttITE3MXTPbIK4dYg2oD0xvY1xaVeOAWtuakrb1qKTigTbc4CK03VURrf2JqJq+s1OD0tq/j/P7QtJGK0EPoaRw+f3QxnkrBu+OixKJOnCyyUUEMoB6WVXDIrAc6KdsdL+74XFryF8IfyC6HxIYxYWgZnJ6EoL8OF0tBcDayzagpKQY72i0s1OHve54/t6mOLVp8thZA80yL7ELQFla0OQkkWVYF11kqKVU15C0TI//aRq/pE7BRCSu/cWA+Rqs5tTyOUIi0XLFPfSshPP7GsBQZBu3zPrrDgKoRyc0WeTcVlMBjVU5N8KANd4AerFI1FdlSwphQGSfvg3ddCIvonhORqH5YAg9U0cj6hBLVVYJWZyE6fNtQPg+d+4Z69QkR5IfRlDK8AE7xb+n3IL21SFHXC9LwsMOeBD68Ki2guhJQ+owlMqlrskdELwSJ1BciLanO9YJb2wb7dInonhL4Tw9xgWlnlPEJuSdlgjfN15NU/C6xw9OqrQiI6CyGljqwCK2g5JYTMPMVgCY35nWQ9vwkssXPnwe17RVQWwoxJbrBIXSsyozVgidIk5KRvyAbLPHDkeyERdYUwbcNksE5TDfKiaQlghSWpyEj/aAhYZ6f/pYfCIroKIU2ZWQ9WqhqNvNomq//Y3bdhCFjrbdNfh5ILYVKXH6x1WTshJ1cuWMCbT8iGRpeC1Y5/vFtETyHUM+vAcpM3EzKikWCBqlpkQ9Mng/Xeu/p7oSgphOQYmQUMLhyHjKi1Gcwr9iCXYMES4OA/bOK5Q7j3SnmvjM5fWQYslqUio7ZEMG8lsuloACbPvxUafCF8U1YhpLZcP/DwTtCRT8cwME0bRXxz8gRgsvPte/pE3yALYVBWrpKKgc2QGlL7SVbFdEIelDEZ+Hyyr08oXgjHzAZGFxYQcqFNfjBrXSMycVwMjHY+8O42ofIro76aJmBVqCObpCFg1qQ05EGdzcDqmo8jT1bvdbIKob6pCniV9hNyGbvafO4JeaQUAbP3jkT4QCt895WyJoT6R9nALdeDXFyTlD2702I/KJYsiYXQObcC2DXzPdqmQjCp5QQhi3l1wO+9T3eLSArhTyUVQtfiFpDgtnRkQqM0MKdpHtdUQAMJvEayIimEPSiBkzlX/LfG0ph6MCcnFVkUrAZQKll9QtwgqRA6Z7SAHMM8yCS5CsxZ5uT/DRF7shgKodq54r98Kr2IvxTy3wDAfII/WQhRcq74DdeRh6sczJlLyKG/GiQma5tQpxDq46tBnqZk5OFrAFPcTBugR4BE7xlPShUphPpHWSCR/yJCFrQQTMlaQchgfhHIdPTYj4QahdDXmQ1S5aYhC9rgV/FfqVFWJdr5wGenz5W0Qpi5AOTiek2T2psV3BpAeSDZHdtDgVMSsgohtTaBZP4NhBzI5K9WuzzIwLMFZNt/IHSaQnhFt5RcragD6bh64bhEMKMyjem+Euk+eCtkcyGkjFkgX1E6sphSBGas5cg75XtBvucPhU5VCElKrsYVgw2ySpBF6hYwYyQyoEvADod3hex8ZbSxHOTjO2Q5loEZHxHXyzzyaQ+/Jr45IbxRUiFMP18DW6wl5OBsADPyie31Q/n8n24Tdk0IHTP9YI/yNOSgF4IZ7chg0QKwx3vH9opvFkKUwLmwDGyyaj5y8C0EM1awPM1JAJs8sC8s7CiEvguqwS5VTyMHGg9mLGKZBmhgl/33hGyYEFJNKdim5QTTTAfMGMd7pYR8HzwUkl4IacV5YB9vJnKgfDCjAK1HM8FGh3eJPxbCkJxCSE8PBTsxLW6rATOmoPV8U8FG2sO7hdwJYWM52GokIYdW5YLlzAU7Pfp/7/2FeyVNCD3DNbDVGkIOm8GMFParSuQ7+m6fkatb5RRC5wQ32GslskhS7ozV0QW22nnHPULIKYQ9wT8dVQ02m+pDDk+DGW0SgiXf2z/eseOHPUFkF7zvz6rAbut15DAPzBgn4atQPu3P/+J+GYUwGPz1X74AdrtURw7jwIxktF5aOdjNP0PKK+7dt9zee+gg2KzShxySwYynZVzmLF9XShDZ9Wy983d3B0IH9sfmGasWzMhA6+mVYLPVi0hCroI/e8LYdBfafhxsNQdZZIAZJWg9mgj2amqVkqv7ngyLcCAQeOfdo2CnPEIO08GMfvYXSOXL2oQSBOmZX4pwwLDtyHtgoxmEHPqVex+L5oKdmmfoyC/Y/exvjFwN2P2+BrbxdxJymKbcG6SU7wX7eAvTUILuNx7vDQf+QLz2igZ2SWhFDpSv3jvvJ1rANlplKsoohNe+2Bv4QmjXC2CX7Aymi6jAjMXIILkJbFPeKOXgfv0NX1t9fuh5YCX/PvXFYMYaH1ovfSjYJScZJQj2/HCHCAe+LPTcQbBHlwM56CPAjAYnWk+/FGyyNImQXzD405uMXH1F6MDlMfUYyzkczMh1xNK7yYljCCXovuXW3nDg60JPfQJs5G/0duSCGcWpbDuF5auqQZQyybnr7sC32X4HyFe9AlmkFoMZS1O41t3JN6QTUcok514hAt/qs+Mg3eqxyKJgtpx7u9R/v6H6Ih2lTHLuD4lw4Fu98+4DIFuljiwWVYEZFZspRg5Z9TN0OYVwYJJzCnuPHQW5/Ewra8jk9cTuTEIGKypAsuaRLpQguHVgknNK2z4+GiNXReZ7VZxgpi4BuRImpKEM3Y8NTHKkJ0v+5baLlbwEh5aDVGV5HSjDwCTn9LbteU/yNyGPmUquPKGSbKm5usQhpxBe/7IQAZWSNXke8nDmqrmkqSMX5ElY40AZgvcNTHLOnKyjIMtKHXmkDlVzrRxlJoAszRMciLInOWqcsyr6CXmMuwzMadmMLNKXgCT1I9NQhmD3m8Yk52xsO3YNSJHbgTzoRIui7x/SBV6QonqGC+VMcq646+5w4Ozsffc4SNAyjZTdsAqXELKYkgMyZI3XUdYkp1cEztbez+4AfrkOdXdCQ66Ta8tPGfCr6tQR5U9yzuyd7fuBW0UrqbvFHlaNRR6p5cAuscaHUgR7HjQmOZF46m1gNjUNuUxZCmYNSWLbV50NzGb1oxzBrb82JjkRCb11EFglLkIuwZIsMMvPtgldL9SAk7ZlESFKnOREKHToBQ34uOciG+r0g2kjCJmkLAFG3vUFhCjp1T5jkhMxsevhR4FNbiqyoUJlX8Y30JgFwKb+klRCOYLXG5c0DELotU+PApPJSYRsHF1gXuI85OKbWwZMqj5yoUHmJCdyYtu7dwCLavMnGO4f8CW0E1/yGzRgUTTGh5IEaWCSM1hPfQAMvHlO5EM1ZWCBCRRtV1V7lyUTGuRMcl7vDQcG7cbnDmucv/dWePXysA5kQ7U5YLmsCakoS0/3FVfeHQ6YcOMj1h+0hqWggf+IZXaTPR9KmgUWW1Wjo0HSJOe6XhEwZ9tnl4OltowjRClHLLb33s2jkiKwUkJlMknM1fUDkxyznjv8KFini/kToHw3WGIOcqKMYrDOeaMcKE+w5xfGJMe00Gt7LGuH/klthKx8K8EaQ9ORE83L9YM1ms9fhAbJkxzzxDsHLHoM726YQshrfhFYo/oEISeaP7MZLKAt3eBAmbofu90ohJYIPbLnEzAva7kHmVF/NVhkOSGvtAuawLTstfNQJuO67d6Add5565X3wKTZo3XkRhOsaxkeZOYrKXeDKQmT+nWSmquTkxyrhHZ/dlADE8ourUV+nmKwSnYJcqP0xU0weO6cTg+hVMH7njQmOZYK7TqyX4NB0uoukvEZ0PQhDLsUGfmSKqsHHasLxqJkQXrVmORY7tD7n2gwGKUzk1EGWg7A8F3IiNJac1sgcglLRpmIFcMkxxSx97n3B/FfK+v8FTpKkVoM1hmyAqVwtC/Lgshk5eano3Q93W9caeSKxd5DRz54FCKglVb2p6Ec1F/BsDaDHXWcmJPohbPlnl242UEom3Hd9nW9ATZ9gV2fvXRcg7PjXjeixIXSjAArFc1HSUifN2pZkxfOzHvZxZsKfITyGddth0RfgFFo91tHnn/gr+BM3E0Xdxb4UJ7GVWCl5hpCaciV3Dl1VZYfTk1rmV05qtZFaAdjkmMUQl4i8NqP/7rKDafmHzJ0Yn6y3A+BMsvAUpVOlIn0sSUfzbktscKtwddoCQuKzl/c36gT2iQYHJjkMAuL3/za8XRmYVditR++RvNWJBav/Kgk3Ucol3M9WKtqEcpG6GibnjmjsLL8tpxVs89LnFy39MKN6wvHty9K14nQPsbiVAm5+uWDPcGBD2Fz58KG3C0Xrq6bfN66VRfeVl5ZOCNzRZvHRyhfRhVYbCShHYjQ53J40qcUtBU0zk916Gg+UwyTHIZche8/uV6YCJ2O1PTGgoIp6akOl0/+Z8B4Y17RFIwe/ItTuQnxxM+MXCmmsQis5u4kPOfk4lRuvb+7c6t6uaINbrDcMAeec3JxKq9w7+OPdaN6PMPAei2thOrjX5z6eq+MQvjs1iAqh9pbgMF6F8a7HmNxqoxC+ExPENWTdilwyF6B6pM/yWHI1Y4n7wuigjYPARYNOqqPeZIjpxBeH+xB9TinAo/SElQf/+JUbr0vXmsUQvVszgYmE3VUH+t12+oWQn6uqcCldEVc5+qWW2Uc3F83CqGCqH8IsJnqwrgVTPmbuyUc3G96lYKooo6LgU9W/D7LorZhH+4WUgphDyqI2quB0SQPxqnGXPAe2Sa4C+HLJgoh90N3Ts2bCOPS/PUawNFj78RpIUTqTABWOY0Yj1KH++Fzx/f18RbCN7pRTY05wMu/EOOQZ6UXBnyyvY8xV6+/2R1ENS3XgFlTEmG8cax1wx/sPxCKv0KIlNQE7CodcZerNWVw0gdvhbgK4Q/vC6KaHOeD5c6d39MmJMCXHHyOI1l9ChdCpM5mkGDVPIwnroXN8BXPH+JIVu91RiFU07jVIMUcZzzlamQ9fM0LuyxPVvjuK6/oVjVXrokgR0UNYbxwLq6Hbzi8KxRHhZDyW0CSoW1xk6sZLQDcyTIK4U8piIoatwqkmZgWj7liSJb6hRA7hoM89RsI44BrcQsAe7L6ROgGZQsh0qhmkOi8eHhMmmac2yUkyyiEqChKmgxSlafHfq6WN8NpvHBVyKJcfV4IUVVjh4Fc/jwnxjZHXjOc1guHhCWF8NZb1M2Vq9APklVswpjmWVsGZ/D8QyFLLisKBlFVG1pAusQVhLErfaIXzujgWyFh+repv+gJoqJoRRPYYEkbYYyiKZVeOAtvHwgLc7kK3a9wIWxbArZYn4qxidpyNTgbO/dv7zOTLCHuNS4rUlTqerCHN8+FsYie7tLgLH2y70eDT1bf3Xfd2a1srlyXeMEm9d/RMfZQUg6ctZ0P/MmgkxXuvV3hQqh/px5sMyQfY0//aojENd/fLWKxEOYPARtd1koYW3yjEyEyZT+/WYiYK4Stl4Gt6mLsoYM+qhQi5f3tX4ZEeBCF8D51C+GKOrBZUQZh7OgYWQGR83/3qrAIx1AhpIwisF1OLWGsSJ+ZAIOx81c/3iHCEd9ei6qqzQEF3JZMsfL4apkfBmXnzh/87U0iskL4WDcqipKLQQm3PR0jjxmKzRTkv/uNEOEICuHWoLKP8baAIopj4dtQn1YHZjT//e/DIhzJOhM1UW0xKCMn+k/waeNLwRz/P/zjL0U4gnUmSqKMHFBIUQlhNKP0wmYw6a/gn/75JiH6GNeZ8KOSIlDK7DHRPR3M9YIFsv/uX0IizLfOhN+YpaCYpkwdo5WvdRZYI+Fff/9LEWa6vZafntkEyske78Lo1PGdBWAR46D1m14R5lhnws81PhsUVJ/nwShEBQ3NYKHEfzvd16GxzoSCqCRPXj0oyT01hTDa+PqXaGCp6n/995tEFN5e2zjcDYrSbkvCKOOYWwVW8+f8861ChBnWmXBK2qiBus6LriM8JVcmgPX+quo//uaX4ttvr1V0QqiPrgOlZS33EEYL5+hVGrBw//VfvC5EOFoKIaVOyALFuddHy0yapoyoADaJ//Y3O0S0rDOpzfWC+lbV6BgF9DHFfmBU/9d/YZy0ouD2WmfmOogKWXljSf0ZzvJS4KXV/dt//rJX9CleCKmxsBqihH/LCR8qTT/R5QV2/7XsL24XIqz0OhO9dYkfokfVwvmEyqLGvFKQoum///2mXhFWdp0JTZlQClHF29Wvo6Jc0+T9kbpv++fHw+IP60x61Pt3VeyHaFM6og2V9PTECpAo+1//8XUhVLy9ltoKsyEKaas2eAgVQ6nj6zSQyn/ef/zNTerdXkuOzlkaRKeE3M06qoRc7V1ukM79D//zoGq31/4ve2aV364SQOGZuDsTT72lNJDaUInUnVqcUOfWfRNdRF67mewjC7l/dzcs+Z55+n7nHGCGqPcJQL2kz/KsgmQ6kwtAFva36gElrTebn+oGqgb2WCmkEML9G0A2uktO5aw3b+2BQO1w4iyPFIB7rSCrTLhxtqqMaHnKNAO0AEPHZI8WWaY5IDOw9l+ewEhm5m29XUArMPSdW9bpjxkVIRPWzpzyRoscfRkrLcGI1jArk1JqVjnTDzcSFb9MHjARXqO7gNbgUpZxGZQSje0sA5SEfmvXi+U4anEO9XBAi8B01T4vrcybypkBAqUhPJdPpJ5v79hIGgLNoqO3I1LN1hMir/v0ypTJFM7ufZJFCwfyk+tFoG3gYt8jRWAJbiwq/dMZBXvoNJXDEnhAmOWjy7ccaAG6CokxD4v/aUUbMZMeAmXDGMy7JIv/bao8p2diBrQMwvTZGP+P+ooJ6vqopo6K6sSpMZ7F/yxVh2e0AFoMXdb82LhB+G9/rucvk4UuNXVMTERP/vpFIsaBE/sUXQQtCXNrip9Swb8VLsyG7tdytwxQG5meo7LTy+K/FiqCvJ/c6smAFgYKqT6rg/Ij/KcuQ5HHPXoBAnXCdffOXK/+ebgwCngmYsviDgRtYDGVOxhw8i/ThX8nU+iGqseSxjSj9gFP9yaaFffNb2lA+FW5Vu3xLbGzHaqPYPTZ3FnsMD/vZzHGP2mSDYYajuaQKVXUiktup2A6s9XDXgL9pIbXzxGD1MR1/IhOd4E2XwHqFkVTYuXy0OnivTcEi/DT1xaKCPhCJxHHozWRozcE7fWTK9Z6q5a73fGwZzDAvh2wr4oIDpKuid3ywdG6YeeHg92GE9KG6eetRH/sMXpad+ZPeNITmuepuYazPjbQtA6V+tYL6X0GartlGb3BmDP3z17u3q/OvSxaMEAgRAT8vpCHaowfRl+KSJpoQ2fmb3h40R4cCAAAAAAA+b82gqqqqqqqqqqqqqqqqqqqqqqqqqqqqqqqqqqqqqqqqqqqqqqqqqqqqqqqqqqqqqqqqqqqqqqqqqqqqqqqqqqqqqqqqqqqqqqqqqqqqqqqqqqqqqqqqqqqqqqqqqqqqqqqqgoCu9benx22bgAAAABJRU5ErkJggg==;" vertex="1" parent="wZWly8G9XYtV8ZJdP7As-10">
          <mxGeometry x="58.5" width="40" height="40" as="geometry" />
        </mxCell>
        <mxCell id="i0sY7tSdIwuUhT-nB4eU-65" value="" style="edgeStyle=orthogonalEdgeStyle;rounded=0;orthogonalLoop=1;jettySize=auto;html=1;" parent="wZWly8G9XYtV8ZJdP7As-14" source="i0sY7tSdIwuUhT-nB4eU-61" target="i0sY7tSdIwuUhT-nB4eU-56" edge="1">
          <mxGeometry x="680" y="840" as="geometry" />
        </mxCell>
        <mxCell id="i0sY7tSdIwuUhT-nB4eU-64" value="" style="edgeStyle=orthogonalEdgeStyle;rounded=0;orthogonalLoop=1;jettySize=auto;html=1;" parent="wZWly8G9XYtV8ZJdP7As-14" source="i0sY7tSdIwuUhT-nB4eU-55" target="i0sY7tSdIwuUhT-nB4eU-61" edge="1">
          <mxGeometry x="680" y="840" as="geometry" />
        </mxCell>
        <mxCell id="3YkjBhUe68sp3YTSF8YO-5" value="Elasticache Valkey" style="sketch=0;points=[[0,0,0],[0.25,0,0],[0.5,0,0],[0.75,0,0],[1,0,0],[0,1,0],[0.25,1,0],[0.5,1,0],[0.75,1,0],[1,1,0],[0,0.25,0],[0,0.5,0],[0,0.75,0],[1,0.25,0],[1,0.5,0],[1,0.75,0]];outlineConnect=0;fontColor=#232F3E;fillColor=#C925D1;strokeColor=#ffffff;dashed=0;verticalLabelPosition=bottom;verticalAlign=top;align=center;html=1;fontSize=12;fontStyle=0;aspect=fixed;shape=mxgraph.aws4.resourceIcon;resIcon=mxgraph.aws4.elasticache;" vertex="1" parent="wZWly8G9XYtV8ZJdP7As-14">
          <mxGeometry x="145.5" y="450" width="78" height="78" as="geometry" />
        </mxCell>
        <mxCell id="3YkjBhUe68sp3YTSF8YO-6" style="edgeStyle=orthogonalEdgeStyle;rounded=0;orthogonalLoop=1;jettySize=auto;html=1;exitX=0.5;exitY=1;exitDx=0;exitDy=0;exitPerimeter=0;entryX=0.5;entryY=0;entryDx=0;entryDy=0;entryPerimeter=0;" edge="1" parent="wZWly8G9XYtV8ZJdP7As-14" source="i0sY7tSdIwuUhT-nB4eU-55" target="3YkjBhUe68sp3YTSF8YO-5">
          <mxGeometry relative="1" as="geometry" />
        </mxCell>
        <mxCell id="3YkjBhUe68sp3YTSF8YO-9" value="" style="group" vertex="1" connectable="0" parent="1">
          <mxGeometry x="540" y="880" width="340" height="640" as="geometry" />
        </mxCell>
        <mxCell id="3YkjBhUe68sp3YTSF8YO-10" value="Availability zone 1" style="outlineConnect=0;gradientColor=none;html=1;whiteSpace=wrap;fontSize=12;fontStyle=0;shape=mxgraph.aws4.group;grIcon=mxgraph.aws4.group_availability_zone;strokeColor=#545B64;fillColor=none;verticalAlign=top;align=left;spacingLeft=30;fontColor=#545B64;dashed=1;movable=1;resizable=1;rotatable=1;deletable=1;editable=1;locked=0;connectable=1;" vertex="1" parent="3YkjBhUe68sp3YTSF8YO-9">
          <mxGeometry width="340" height="640" as="geometry" />
        </mxCell>
        <mxCell id="3YkjBhUe68sp3YTSF8YO-11" value="" style="group" vertex="1" connectable="0" parent="3YkjBhUe68sp3YTSF8YO-9">
          <mxGeometry x="40" y="39" width="260" height="560" as="geometry" />
        </mxCell>
        <mxCell id="3YkjBhUe68sp3YTSF8YO-12" value="Private subnet" style="points=[[0,0],[0.25,0],[0.5,0],[0.75,0],[1,0],[1,0.25],[1,0.5],[1,0.75],[1,1],[0.75,1],[0.5,1],[0.25,1],[0,1],[0,0.75],[0,0.5],[0,0.25]];outlineConnect=0;gradientColor=none;html=1;whiteSpace=wrap;fontSize=12;fontStyle=0;shape=mxgraph.aws4.group;grIcon=mxgraph.aws4.group_security_group;grStroke=0;strokeColor=#147EBA;fillColor=#E6F2F8;verticalAlign=top;align=left;spacingLeft=30;fontColor=#147EBA;dashed=0;" vertex="1" parent="3YkjBhUe68sp3YTSF8YO-11">
          <mxGeometry y="250" width="260" height="310" as="geometry" />
        </mxCell>
        <mxCell id="3YkjBhUe68sp3YTSF8YO-13" value="Public subnet" style="points=[[0,0],[0.25,0],[0.5,0],[0.75,0],[1,0],[1,0.25],[1,0.5],[1,0.75],[1,1],[0.75,1],[0.5,1],[0.25,1],[0,1],[0,0.75],[0,0.5],[0,0.25]];outlineConnect=0;gradientColor=none;html=1;whiteSpace=wrap;fontSize=12;fontStyle=0;shape=mxgraph.aws4.group;grIcon=mxgraph.aws4.group_security_group;grStroke=0;strokeColor=#248814;fillColor=#E9F3E6;verticalAlign=top;align=left;spacingLeft=30;fontColor=#248814;dashed=0;" vertex="1" parent="3YkjBhUe68sp3YTSF8YO-11">
          <mxGeometry width="260" height="211" as="geometry" />
        </mxCell>
        <mxCell id="3YkjBhUe68sp3YTSF8YO-14" value="NAT Gateway" style="outlineConnect=0;dashed=0;verticalLabelPosition=bottom;verticalAlign=top;align=center;html=1;shape=mxgraph.aws3.vpc_nat_gateway;fillColor=#F58536;gradientColor=none;" vertex="1" parent="3YkjBhUe68sp3YTSF8YO-11">
          <mxGeometry x="40" y="71" width="67.08" height="70" as="geometry" />
        </mxCell>
        <mxCell id="3YkjBhUe68sp3YTSF8YO-15" value="Aurora Postgres" style="points=[[0,0,0],[0.25,0,0],[0.5,0,0],[0.75,0,0],[1,0,0],[0,1,0],[0.25,1,0],[0.5,1,0],[0.75,1,0],[1,1,0],[0,0.25,0],[0,0.5,0],[0,0.75,0],[1,0.25,0],[1,0.5,0],[1,0.75,0]];outlineConnect=0;fontColor=#232F3E;gradientColor=#4D72F3;gradientDirection=north;fillColor=#3334B9;strokeColor=#ffffff;dashed=0;verticalLabelPosition=bottom;verticalAlign=top;align=center;html=1;fontSize=12;fontStyle=0;aspect=fixed;shape=mxgraph.aws4.resourceIcon;resIcon=mxgraph.aws4.aurora;" vertex="1" parent="3YkjBhUe68sp3YTSF8YO-11">
          <mxGeometry x="34.539999999999964" y="450" width="78" height="78" as="geometry" />
        </mxCell>
        <mxCell id="3YkjBhUe68sp3YTSF8YO-16" value="" style="outlineConnect=0;fontColor=#232F3E;gradientColor=none;fillColor=#3334B9;strokeColor=none;dashed=0;verticalLabelPosition=bottom;verticalAlign=top;align=center;html=1;fontSize=12;fontStyle=0;aspect=fixed;pointerEvents=1;shape=mxgraph.aws4.rds_proxy;" vertex="1" parent="3YkjBhUe68sp3YTSF8YO-11">
          <mxGeometry x="34" y="314" width="78" height="78" as="geometry" />
        </mxCell>
        <mxCell id="3YkjBhUe68sp3YTSF8YO-17" value="" style="group" vertex="1" connectable="0" parent="3YkjBhUe68sp3YTSF8YO-11">
          <mxGeometry x="145.5" y="291" width="105.5" height="101" as="geometry" />
        </mxCell>
        <mxCell id="3YkjBhUe68sp3YTSF8YO-18" value="ECS Service" style="points=[[0,0,0],[0.25,0,0],[0.5,0,0],[0.75,0,0],[1,0,0],[0,1,0],[0.25,1,0],[0.5,1,0],[0.75,1,0],[1,1,0],[0,0.25,0],[0,0.5,0],[0,0.75,0],[1,0.25,0],[1,0.5,0],[1,0.75,0]];outlineConnect=0;fontColor=#232F3E;gradientColor=#F78E04;gradientDirection=north;fillColor=#D05C17;strokeColor=#ffffff;dashed=0;verticalLabelPosition=bottom;verticalAlign=top;align=center;html=1;fontSize=12;fontStyle=0;aspect=fixed;shape=mxgraph.aws4.resourceIcon;resIcon=mxgraph.aws4.fargate;" vertex="1" parent="3YkjBhUe68sp3YTSF8YO-17">
          <mxGeometry y="23" width="78" height="78" as="geometry" />
        </mxCell>
        <mxCell id="3YkjBhUe68sp3YTSF8YO-19" value="" style="shape=image;verticalLabelPosition=bottom;labelBackgroundColor=default;verticalAlign=top;aspect=fixed;imageAspect=0;image=data:image/png,iVBORw0KGgoAAAANSUhEUgAAAlgAAAJYCAMAAACJuGjuAAADAFBMVEX////9/v75+fny8vLn5+fa2trMzMy5ubmsrKygoKCQkJCFhYV5eXlubm5kZGRdXV1ZWVlUVFRQUFBOTk5MTExKSkpISEhNTU1WVlZjY2Nra2uGhoaXl5elpaW1tbXJycnz8/P8+/vx8fHm5ubX19fGxsaoqKiIiIhaWlpSUlJeXl6tra27u7vb29v7/Pzl5eXT09O/v7+Tk5OBgYFwcHBHR0dJSUlycnKcnJyxsbHd3d3v7+/6+vrh4eHKysqzs7OZmZliYmJYWFj09PTu7u7Z2dm9vb2ioqJpaWmdnZ3V1dXs7Oz9/f3g4ODDxMSjo6P19fWCgoJnZ2fj4+P39/e3t7eUlJRzc3PCwsJbW1vp6en4+Pi0tLT29vaqqqp8fHzBwcHe3t5gYGDf39+rq6t+fn6vr6/i4uLAwMCOjo7Q0NCLi4tPT0/r6+uYmJh1dXXR0dGMjIzOzs5IRkZPcnuGx9fg8fZHSEhAV1wmlLAgp8lEsc2p2+j0+fpIR0ZDUVQqi6Qfp8ofp8kmqcpqwdfL5OpIR0dFTE0ugZUfpskgp8gfpsg2rMqPytnp8fMzdocgpcYgpsgjpsdZs8rB3eU4anchocIwqcY9XWYkm7l3eHhETlGg0N00c4Igo8TY6u45Z3Iin7622uPS0tMkmrfr9vlBVFknkq0fqMphvdT//v4rh59GSUowfJDw+Po3cYBMttE8sc+u3uookasqqsqO0uMjqMlxxNrk9PhZvNXV7vRGtdLA5e81r876/f4/W2Ell7OU0+P1+/yDzd/u+PothZsxeYthwNlmZmY2bn12dnY7Y2xLuNPP6/LG6PApjae84+0tgpi04e03bHowrc0jnbtAWF88YGlSutTd8PUiqMl9yt74/P2h2ug+n7dnbnCRxNDa7/Sk2OWSkpKKz+Ho9fma1eR0yN1JSEdpfIDT3uBWlaQ9q8b+/v/Ays03lq11tseNucSoxs7M1thUnbDd5OVqoa8um7auwcWGp7BAlKmSsLc1kaj5+PiVrbN1pLBnp3n8AAAfw0lEQVR4AezBgxHEAAAAsEdtG/tv2SV6TvLhBQAAAAAAAAAAAAAAAAAAAAAAAAAAAAAAAAAAAAAAAAAAAAAAAAAAAAAAAAAAAAAAAAAAAAAAAAAAAAAAAAAAAAAAAAAAAAAAAAAAAAAAAAAAAAAAAAAAAAAAAAAAAAAAAPD9/YMwipM0y4uyqpu264dxmsZh7pZ63Yr9OK87DB726kJBdSSIwnCCjAfvShjHSXA5OOPu7u4+66+/7r57L0Tge4S/u6pGfbzhQ/gDwdBweDDSJ3ijsvhDBbfL6VBsQl9vT3cs3pGwmE3/1KEtOZpKZ8LZXN7rkEVGAP0ZUIG5HLZib6k8UqnWeEOWMNfHxidywuSUy1Mg0J8AiImyw5vPZcOZdGA6ybX9EV+bmZ2bH8grMiMA9C8AIFFayC12Li0b6XetTK+uDUWEqJsA/MsOTFbykfWMdeZXW7yN36iH1je3nAwA/WcAc25tzoe2dwzQdMVs3d3bj3oI+O8dwKSFzfWDinmFa+OnE/HB/UORQB8CEJW+7tCRj9Ox49X4Xl5iwAeFYFNCNl6ZbunN5bOESvtTDKCPAXB7IyeJU10m5c3ps/ND9pFKsKn9iYtUjWtJO5fDEa8I0MeEwlRfeGmU19mvGk2vF2UCfTwAuxoYvj5uuV81e3PuKIAaAOTcHwqe6ugCWsP7MqEBJQqHt7HEDtcyaqvlc4lADQOSzu/ufZwOJFPDtw1sAZq6Hf+uhPHxyw+RwwKowVBQHkfMWj+JG097VwyNLmF/Xpvhjb6srN0LHlBT4KXYtZ3U8Ii97vbJoCaA2D9vNXHGZQ5FHNRMhavB9I5Gb+B9eIGBmmaqd81s0Btoudt/ATWbM6fFoL7ZN6VATQX3/viR8S7iSn3dxkgNcL8PL2sraC3d41CjBNtav05yRpK8LCkFUg3rv9PQ1zJ98iyBVGKfuFwxzra6nLCTupgwvqyVbfXsBKlIWawb42vxqW6FVAcm7FY1sLqDn0ogVYGu5rd5TveWu2wF0gJ43uemVZ6x+oQDpDoUbGevPKdr050CA2kE3OcjJk49r+FJ0ggm7I5y+uV7uhVJSyA/zyY5dZzOCQXSDvH2Mx+nU4EJCaQxn3/x5Vc813zJpd4XkJZAegtwenQaX6Bv2LsPv6jO7H/g5yJ2ARnmnkGwMEhxQCYkcsYCYsFgYVRqDCAholjJKvD6hmSSmPDoThJmi7Mlhe2bbqpZu6ZY0kzvfX+/9G/vvefy3TXVMtx7nvvMjO8/YV4fmOdzz53nqKan+4orA1ddfQ3I1jRyLKFyFk1tgWijzcpPI+VytfXa63qF2Lb9u37J34IZPlQQpeXP0iCqVM9pI1RNT/D6G24UfQER+t73fwDSaEMzOwjVRG0rqyGKzM53oXqCPT/cIcKBz4kf/fgnXpCjYm0Bobpcmas1iBJl62tRQcHgT28ycmUQoZv/5AcggXZhjROVRslTEyAqVM31EKon2H3Lrb3hwB+JHRz/tPj/XTFwjK8C9WlL+n1oULAQ9vYFTgqL0M3cJy2taLSTUH2+/iUaKK5sagEpmautP/u8EAa+zDhpsdbDlpVthFGBCoYngNKyFzvQoGIhDIm+wFf0idD3fn4NcKnb5CKMFo65paCwuhodlRTs+cUvRTjwdUL8aPuvgIU7NwOjiW9aHahK25hBqKRg8Ne/MXL1DX0ifNVvy8B62QtTCaMKJd2mgZK8lSmEauq+5XajEH4bIW7+/h1gtdXTdIw2VHCxHxTUXJiKiuq+8667A6d044/u+dVOsJI3t5YwCqXPTADlVC/uQDX1BH92rxCBUxOhq37rBetU5KUGMSo5RlaDYkovcCqbq/vuD4lw4HRuvPn7D4BVEjc5MVo5LygFpVTl+1BRwZ4HjUJ4ep+3w8utekA8HaOYL78KFNJUg6oKbh0ohGciwg99VwPz3PwPiJnVNIEyEtuRAXsh/AoR2vWwF8yqWO7BaNeeqEyuWlFZW+/8XW/g7IR373kAzGnqdCKeSxZ/rpQvhF8h9u7bD2YU9WNMaG8CBVw2DVHhQhgW4cDZEuEDB2HQtPJawthQUwW2W5CJqHghjEDo0GENBsc9vJEwVmSWgs2yNvjUL4QRCD1y9aMwGC15HowdvlEVYKv6uToqq/uxx41CGBmx+8hRiFzpRS6MJfriZrCRO8+FquoZKISRu3vbseMQqcTROsaWtDVesI3W4FG5ED4hRGAwIi+Hq/sx5nimamCXSVNULoRPGr/1GpynLodIFGcQxhxf4zCwydCnCVUVpGeM33oNUiiSxw5a+TjCGESLVoMtEk+QwoXwWaMQDlrouefhLPmXpRDGJGqtAhtUd6Kyek4WwsEKHXphJ5wN7/CxGKt845tBOm+eU+FCeO2LvQFz+na9pMGZuWemEsasjpUayJabrvDB/fqXhQiYJB55RYMzKRvhwVjW2AWSzV5EqKqThdBssh7W4PQS8hwY06gkEaSqyFS5EL5qFELz+l47Q7LqF3ZgjKMN9SCRNsKpciF8vTccsELotas1OLWWxS6Mea45INFtjais7jeMQmgNcbpkVc9wYhwoyAFpFvST+oXQGqdOVvVcJ8YDah8CkvgX+tQvhBYRpzpnVX/HifFBX6OBHBvnK1wIB26DtNK3P3WonqtjvEjJASlKx5C6hXDgNkhLiUe+5Ulpywwnxg2aVgESaHk6KirY/aZRCC3Wt+swfE3zSBfGEedEkCAnBVVl3AYZDljuxkPPw1ckLE/DuJK8Dti1jCbkY349QIAhWKHnDsKXlOV1EMYVuqgMuFV2qFsIbxAiwCL01ttwkrvQgfEmdRgwqyohNCi7HoBH6Kn98AfeOR6MOzRmCPfJ3YcGZdcDsNl3HAb4h6diHNJXAqvVbaio7jeN9QB83nn3KHxOu3Q+xiNalAiMvOMJldRzshCy2bbnPQAoT8E4tVwDPkvmq3pw/7wQBpjtfl+DJcmEcaptKbAp6ySF1wOEA7xCr72yKoMwXtEMP3DpSlV6PQCzcO/v/18Q41fKLGCSkEkKrwfgz9Xrz1IQ4xfN9av/D4vhNkhmYXHTqxTEeJayCliUbSJV1wP0BvhztePJ+4LI4Nwpqzhd4dsguQnx8vXBHoxvbeuAgfciUrMQ3m/si+PW++K1W3sw3k0ABrMa47kQPv5GN55TmwjWW0gK3wbJXwi7g8jh3MSwqfZcITznRBZYrUFXcUJ45+9kFsJzHJPAYi2thPagAYg+JENcFkIagD4f0gC0C3W6wVpbPCgdkc/RuOhE5kUj16xsGD61YWLhyItqpo9L1ZG+ui8ulgshoSu9dvPoC0YWTmyYOrxhZeHI8fn9GY0Onz3xSlkKlvLLfl+GsGNe64zhG9ctaHFrcJLmrmjKuXRk+7w0ImM9QGwXQkJPRv4lubOqvvoZeOtL67omzm1NdiChbCPAUonJKBHpU1onlCc2a/DttITE3MXTPbIK4dYg2oD0xvY1xaVeOAWtuakrb1qKTigTbc4CK03VURrf2JqJq+s1OD0tq/j/P7QtJGK0EPoaRw+f3QxnkrBu+OixKJOnCyyUUEMoB6WVXDIrAc6KdsdL+74XFryF8IfyC6HxIYxYWgZnJ6EoL8OF0tBcDayzagpKQY72i0s1OHve54/t6mOLVp8thZA80yL7ELQFla0OQkkWVYF11kqKVU15C0TI//aRq/pE7BRCSu/cWA+Rqs5tTyOUIi0XLFPfSshPP7GsBQZBu3zPrrDgKoRyc0WeTcVlMBjVU5N8KANd4AerFI1FdlSwphQGSfvg3ddCIvonhORqH5YAg9U0cj6hBLVVYJWZyE6fNtQPg+d+4Z69QkR5IfRlDK8AE7xb+n3IL21SFHXC9LwsMOeBD68Ki2guhJQ+owlMqlrskdELwSJ1BciLanO9YJb2wb7dInonhL4Tw9xgWlnlPEJuSdlgjfN15NU/C6xw9OqrQiI6CyGljqwCK2g5JYTMPMVgCY35nWQ9vwkssXPnwe17RVQWwoxJbrBIXSsyozVgidIk5KRvyAbLPHDkeyERdYUwbcNksE5TDfKiaQlghSWpyEj/aAhYZ6f/pYfCIroKIU2ZWQ9WqhqNvNomq//Y3bdhCFjrbdNfh5ILYVKXH6x1WTshJ1cuWMCbT8iGRpeC1Y5/vFtETyHUM+vAcpM3EzKikWCBqlpkQ9Mng/Xeu/p7oSgphOQYmQUMLhyHjKi1Gcwr9iCXYMES4OA/bOK5Q7j3SnmvjM5fWQYslqUio7ZEMG8lsuloACbPvxUafCF8U1YhpLZcP/DwTtCRT8cwME0bRXxz8gRgsvPte/pE3yALYVBWrpKKgc2QGlL7SVbFdEIelDEZ+Hyyr08oXgjHzAZGFxYQcqFNfjBrXSMycVwMjHY+8O42ofIro76aJmBVqCObpCFg1qQ05EGdzcDqmo8jT1bvdbIKob6pCniV9hNyGbvafO4JeaQUAbP3jkT4QCt895WyJoT6R9nALdeDXFyTlD2702I/KJYsiYXQObcC2DXzPdqmQjCp5QQhi3l1wO+9T3eLSArhTyUVQtfiFpDgtnRkQqM0MKdpHtdUQAMJvEayIimEPSiBkzlX/LfG0ph6MCcnFVkUrAZQKll9QtwgqRA6Z7SAHMM8yCS5CsxZ5uT/DRF7shgKodq54r98Kr2IvxTy3wDAfII/WQhRcq74DdeRh6sczJlLyKG/GiQma5tQpxDq46tBnqZk5OFrAFPcTBugR4BE7xlPShUphPpHWSCR/yJCFrQQTMlaQchgfhHIdPTYj4QahdDXmQ1S5aYhC9rgV/FfqVFWJdr5wGenz5W0Qpi5AOTiek2T2psV3BpAeSDZHdtDgVMSsgohtTaBZP4NhBzI5K9WuzzIwLMFZNt/IHSaQnhFt5RcragD6bh64bhEMKMyjem+Euk+eCtkcyGkjFkgX1E6sphSBGas5cg75XtBvucPhU5VCElKrsYVgw2ySpBF6hYwYyQyoEvADod3hex8ZbSxHOTjO2Q5loEZHxHXyzzyaQ+/Jr45IbxRUiFMP18DW6wl5OBsADPyie31Q/n8n24Tdk0IHTP9YI/yNOSgF4IZ7chg0QKwx3vH9opvFkKUwLmwDGyyaj5y8C0EM1awPM1JAJs8sC8s7CiEvguqwS5VTyMHGg9mLGKZBmhgl/33hGyYEFJNKdim5QTTTAfMGMd7pYR8HzwUkl4IacV5YB9vJnKgfDCjAK1HM8FGh3eJPxbCkJxCSE8PBTsxLW6rATOmoPV8U8FG2sO7hdwJYWM52GokIYdW5YLlzAU7Pfp/7/2FeyVNCD3DNbDVGkIOm8GMFParSuQ7+m6fkatb5RRC5wQ32GslskhS7ozV0QW22nnHPULIKYQ9wT8dVQ02m+pDDk+DGW0SgiXf2z/eseOHPUFkF7zvz6rAbut15DAPzBgn4atQPu3P/+J+GYUwGPz1X74AdrtURw7jwIxktF5aOdjNP0PKK+7dt9zee+gg2KzShxySwYynZVzmLF9XShDZ9Wy983d3B0IH9sfmGasWzMhA6+mVYLPVi0hCroI/e8LYdBfafhxsNQdZZIAZJWg9mgj2amqVkqv7ngyLcCAQeOfdo2CnPEIO08GMfvYXSOXL2oQSBOmZX4pwwLDtyHtgoxmEHPqVex+L5oKdmmfoyC/Y/exvjFwN2P2+BrbxdxJymKbcG6SU7wX7eAvTUILuNx7vDQf+QLz2igZ2SWhFDpSv3jvvJ1rANlplKsoohNe+2Bv4QmjXC2CX7Aymi6jAjMXIILkJbFPeKOXgfv0NX1t9fuh5YCX/PvXFYMYaH1ovfSjYJScZJQj2/HCHCAe+LPTcQbBHlwM56CPAjAYnWk+/FGyyNImQXzD405uMXH1F6MDlMfUYyzkczMh1xNK7yYljCCXovuXW3nDg60JPfQJs5G/0duSCGcWpbDuF5auqQZQyybnr7sC32X4HyFe9AlmkFoMZS1O41t3JN6QTUcok514hAt/qs+Mg3eqxyKJgtpx7u9R/v6H6Ih2lTHLuD4lw4Fu98+4DIFuljiwWVYEZFZspRg5Z9TN0OYVwYJJzCnuPHQW5/Ewra8jk9cTuTEIGKypAsuaRLpQguHVgknNK2z4+GiNXReZ7VZxgpi4BuRImpKEM3Y8NTHKkJ0v+5baLlbwEh5aDVGV5HSjDwCTn9LbteU/yNyGPmUquPKGSbKm5usQhpxBe/7IQAZWSNXke8nDmqrmkqSMX5ElY40AZgvcNTHLOnKyjIMtKHXmkDlVzrRxlJoAszRMciLInOWqcsyr6CXmMuwzMadmMLNKXgCT1I9NQhmD3m8Yk52xsO3YNSJHbgTzoRIui7x/SBV6QonqGC+VMcq646+5w4Ozsffc4SNAyjZTdsAqXELKYkgMyZI3XUdYkp1cEztbez+4AfrkOdXdCQ66Ta8tPGfCr6tQR5U9yzuyd7fuBW0UrqbvFHlaNRR6p5cAuscaHUgR7HjQmOZF46m1gNjUNuUxZCmYNSWLbV50NzGb1oxzBrb82JjkRCb11EFglLkIuwZIsMMvPtgldL9SAk7ZlESFKnOREKHToBQ34uOciG+r0g2kjCJmkLAFG3vUFhCjp1T5jkhMxsevhR4FNbiqyoUJlX8Y30JgFwKb+klRCOYLXG5c0DELotU+PApPJSYRsHF1gXuI85OKbWwZMqj5yoUHmJCdyYtu7dwCLavMnGO4f8CW0E1/yGzRgUTTGh5IEaWCSM1hPfQAMvHlO5EM1ZWCBCRRtV1V7lyUTGuRMcl7vDQcG7cbnDmucv/dWePXysA5kQ7U5YLmsCakoS0/3FVfeHQ6YcOMj1h+0hqWggf+IZXaTPR9KmgUWW1Wjo0HSJOe6XhEwZ9tnl4OltowjRClHLLb33s2jkiKwUkJlMknM1fUDkxyznjv8KFini/kToHw3WGIOcqKMYrDOeaMcKE+w5xfGJMe00Gt7LGuH/klthKx8K8EaQ9ORE83L9YM1ms9fhAbJkxzzxDsHLHoM726YQshrfhFYo/oEISeaP7MZLKAt3eBAmbofu90ohJYIPbLnEzAva7kHmVF/NVhkOSGvtAuawLTstfNQJuO67d6Add5565X3wKTZo3XkRhOsaxkeZOYrKXeDKQmT+nWSmquTkxyrhHZ/dlADE8ourUV+nmKwSnYJcqP0xU0weO6cTg+hVMH7njQmOZYK7TqyX4NB0uoukvEZ0PQhDLsUGfmSKqsHHasLxqJkQXrVmORY7tD7n2gwGKUzk1EGWg7A8F3IiNJac1sgcglLRpmIFcMkxxSx97n3B/FfK+v8FTpKkVoM1hmyAqVwtC/Lgshk5eano3Q93W9caeSKxd5DRz54FCKglVb2p6Ec1F/BsDaDHXWcmJPohbPlnl242UEom3Hd9nW9ATZ9gV2fvXRcg7PjXjeixIXSjAArFc1HSUifN2pZkxfOzHvZxZsKfITyGddth0RfgFFo91tHnn/gr+BM3E0Xdxb4UJ7GVWCl5hpCaciV3Dl1VZYfTk1rmV05qtZFaAdjkmMUQl4i8NqP/7rKDafmHzJ0Yn6y3A+BMsvAUpVOlIn0sSUfzbktscKtwddoCQuKzl/c36gT2iQYHJjkMAuL3/za8XRmYVditR++RvNWJBav/Kgk3Ucol3M9WKtqEcpG6GibnjmjsLL8tpxVs89LnFy39MKN6wvHty9K14nQPsbiVAm5+uWDPcGBD2Fz58KG3C0Xrq6bfN66VRfeVl5ZOCNzRZvHRyhfRhVYbCShHYjQ53J40qcUtBU0zk916Gg+UwyTHIZche8/uV6YCJ2O1PTGgoIp6akOl0/+Z8B4Y17RFIwe/ItTuQnxxM+MXCmmsQis5u4kPOfk4lRuvb+7c6t6uaINbrDcMAeec3JxKq9w7+OPdaN6PMPAei2thOrjX5z6eq+MQvjs1iAqh9pbgMF6F8a7HmNxqoxC+ExPENWTdilwyF6B6pM/yWHI1Y4n7wuigjYPARYNOqqPeZIjpxBeH+xB9TinAo/SElQf/+JUbr0vXmsUQvVszgYmE3VUH+t12+oWQn6uqcCldEVc5+qWW2Uc3F83CqGCqH8IsJnqwrgVTPmbuyUc3G96lYKooo6LgU9W/D7LorZhH+4WUgphDyqI2quB0SQPxqnGXPAe2Sa4C+HLJgoh90N3Ts2bCOPS/PUawNFj78RpIUTqTABWOY0Yj1KH++Fzx/f18RbCN7pRTY05wMu/EOOQZ6UXBnyyvY8xV6+/2R1ENS3XgFlTEmG8cax1wx/sPxCKv0KIlNQE7CodcZerNWVw0gdvhbgK4Q/vC6KaHOeD5c6d39MmJMCXHHyOI1l9ChdCpM5mkGDVPIwnroXN8BXPH+JIVu91RiFU07jVIMUcZzzlamQ9fM0LuyxPVvjuK6/oVjVXrokgR0UNYbxwLq6Hbzi8KxRHhZDyW0CSoW1xk6sZLQDcyTIK4U8piIoatwqkmZgWj7liSJb6hRA7hoM89RsI44BrcQsAe7L6ROgGZQsh0qhmkOi8eHhMmmac2yUkyyiEqChKmgxSlafHfq6WN8NpvHBVyKJcfV4IUVVjh4Fc/jwnxjZHXjOc1guHhCWF8NZb1M2Vq9APklVswpjmWVsGZ/D8QyFLLisKBlFVG1pAusQVhLErfaIXzujgWyFh+repv+gJoqJoRRPYYEkbYYyiKZVeOAtvHwgLc7kK3a9wIWxbArZYn4qxidpyNTgbO/dv7zOTLCHuNS4rUlTqerCHN8+FsYie7tLgLH2y70eDT1bf3Xfd2a1srlyXeMEm9d/RMfZQUg6ctZ0P/MmgkxXuvV3hQqh/px5sMyQfY0//aojENd/fLWKxEOYPARtd1koYW3yjEyEyZT+/WYiYK4Stl4Gt6mLsoYM+qhQi5f3tX4ZEeBCF8D51C+GKOrBZUQZh7OgYWQGR83/3qrAIx1AhpIwisF1OLWGsSJ+ZAIOx81c/3iHCEd9ei6qqzQEF3JZMsfL4apkfBmXnzh/87U0iskL4WDcqipKLQQm3PR0jjxmKzRTkv/uNEOEICuHWoLKP8baAIopj4dtQn1YHZjT//e/DIhzJOhM1UW0xKCMn+k/waeNLwRz/P/zjL0U4gnUmSqKMHFBIUQlhNKP0wmYw6a/gn/75JiH6GNeZ8KOSIlDK7DHRPR3M9YIFsv/uX0IizLfOhN+YpaCYpkwdo5WvdRZYI+Fff/9LEWa6vZafntkEyske78Lo1PGdBWAR46D1m14R5lhnws81PhsUVJ/nwShEBQ3NYKHEfzvd16GxzoSCqCRPXj0oyT01hTDa+PqXaGCp6n/995tEFN5e2zjcDYrSbkvCKOOYWwVW8+f8861ChBnWmXBK2qiBus6LriM8JVcmgPX+quo//uaX4ttvr1V0QqiPrgOlZS33EEYL5+hVGrBw//VfvC5EOFoKIaVOyALFuddHy0yapoyoADaJ//Y3O0S0rDOpzfWC+lbV6BgF9DHFfmBU/9d/YZy0ouD2WmfmOogKWXljSf0ZzvJS4KXV/dt//rJX9CleCKmxsBqihH/LCR8qTT/R5QV2/7XsL24XIqz0OhO9dYkfokfVwvmEyqLGvFKQoum///2mXhFWdp0JTZlQClHF29Wvo6Jc0+T9kbpv++fHw+IP60x61Pt3VeyHaFM6og2V9PTECpAo+1//8XUhVLy9ltoKsyEKaas2eAgVQ6nj6zSQyn/ef/zNTerdXkuOzlkaRKeE3M06qoRc7V1ukM79D//zoGq31/4ve2aV364SQOGZuDsTT72lNJDaUInUnVqcUOfWfRNdRF67mewjC7l/dzcs+Z55+n7nHGCGqPcJQL2kz/KsgmQ6kwtAFva36gElrTebn+oGqgb2WCmkEML9G0A2uktO5aw3b+2BQO1w4iyPFIB7rSCrTLhxtqqMaHnKNAO0AEPHZI8WWaY5IDOw9l+ewEhm5m29XUArMPSdW9bpjxkVIRPWzpzyRoscfRkrLcGI1jArk1JqVjnTDzcSFb9MHjARXqO7gNbgUpZxGZQSje0sA5SEfmvXi+U4anEO9XBAi8B01T4vrcybypkBAqUhPJdPpJ5v79hIGgLNoqO3I1LN1hMir/v0ypTJFM7ufZJFCwfyk+tFoG3gYt8jRWAJbiwq/dMZBXvoNJXDEnhAmOWjy7ccaAG6CokxD4v/aUUbMZMeAmXDGMy7JIv/bao8p2diBrQMwvTZGP+P+ooJ6vqopo6K6sSpMZ7F/yxVh2e0AFoMXdb82LhB+G9/rucvk4UuNXVMTERP/vpFIsaBE/sUXQQtCXNrip9Swb8VLsyG7tdytwxQG5meo7LTy+K/FiqCvJ/c6smAFgYKqT6rg/Ij/KcuQ5HHPXoBAnXCdffOXK/+ebgwCngmYsviDgRtYDGVOxhw8i/ThX8nU+iGqseSxjSj9gFP9yaaFffNb2lA+FW5Vu3xLbGzHaqPYPTZ3FnsMD/vZzHGP2mSDYYajuaQKVXUiktup2A6s9XDXgL9pIbXzxGD1MR1/IhOd4E2XwHqFkVTYuXy0OnivTcEi/DT1xaKCPhCJxHHozWRozcE7fWTK9Z6q5a73fGwZzDAvh2wr4oIDpKuid3ywdG6YeeHg92GE9KG6eetRH/sMXpad+ZPeNITmuepuYazPjbQtA6V+tYL6X0GartlGb3BmDP3z17u3q/OvSxaMEAgRAT8vpCHaowfRl+KSJpoQ2fmb3h40R4cCAAAAAAA+b82gqqqqqqqqqqqqqqqqqqqqqqqqqqqqqqqqqqqqqqqqqqqqqqqqqqqqqqqqqqqqqqqqqqqqqqqqqqqqqqqqqqqqqqqqqqqqqqqqqqqqqqqqqqqqqqqqqqqqqqqqqqqqqqqqgoCu9benx22bgAAAABJRU5ErkJggg==;" vertex="1" parent="3YkjBhUe68sp3YTSF8YO-17">
          <mxGeometry x="58.5" width="40" height="40" as="geometry" />
        </mxCell>
        <mxCell id="3YkjBhUe68sp3YTSF8YO-20" value="" style="edgeStyle=orthogonalEdgeStyle;rounded=0;orthogonalLoop=1;jettySize=auto;html=1;" edge="1" parent="3YkjBhUe68sp3YTSF8YO-11" source="3YkjBhUe68sp3YTSF8YO-16" target="3YkjBhUe68sp3YTSF8YO-15">
          <mxGeometry x="680" y="840" as="geometry" />
        </mxCell>
        <mxCell id="3YkjBhUe68sp3YTSF8YO-21" value="" style="edgeStyle=orthogonalEdgeStyle;rounded=0;orthogonalLoop=1;jettySize=auto;html=1;" edge="1" parent="3YkjBhUe68sp3YTSF8YO-11" source="3YkjBhUe68sp3YTSF8YO-18" target="3YkjBhUe68sp3YTSF8YO-16">
          <mxGeometry x="680" y="840" as="geometry" />
        </mxCell>
        <mxCell id="3YkjBhUe68sp3YTSF8YO-22" value="Elasticache Valkey" style="sketch=0;points=[[0,0,0],[0.25,0,0],[0.5,0,0],[0.75,0,0],[1,0,0],[0,1,0],[0.25,1,0],[0.5,1,0],[0.75,1,0],[1,1,0],[0,0.25,0],[0,0.5,0],[0,0.75,0],[1,0.25,0],[1,0.5,0],[1,0.75,0]];outlineConnect=0;fontColor=#232F3E;fillColor=#C925D1;strokeColor=#ffffff;dashed=0;verticalLabelPosition=bottom;verticalAlign=top;align=center;html=1;fontSize=12;fontStyle=0;aspect=fixed;shape=mxgraph.aws4.resourceIcon;resIcon=mxgraph.aws4.elasticache;" vertex="1" parent="3YkjBhUe68sp3YTSF8YO-11">
          <mxGeometry x="145.5" y="450" width="78" height="78" as="geometry" />
        </mxCell>
        <mxCell id="3YkjBhUe68sp3YTSF8YO-23" style="edgeStyle=orthogonalEdgeStyle;rounded=0;orthogonalLoop=1;jettySize=auto;html=1;exitX=0.5;exitY=1;exitDx=0;exitDy=0;exitPerimeter=0;entryX=0.5;entryY=0;entryDx=0;entryDy=0;entryPerimeter=0;" edge="1" parent="3YkjBhUe68sp3YTSF8YO-11" source="3YkjBhUe68sp3YTSF8YO-18" target="3YkjBhUe68sp3YTSF8YO-22">
          <mxGeometry relative="1" as="geometry" />
        </mxCell>
        <mxCell id="3YkjBhUe68sp3YTSF8YO-25" style="edgeStyle=orthogonalEdgeStyle;rounded=0;orthogonalLoop=1;jettySize=auto;html=1;entryX=0.5;entryY=0;entryDx=0;entryDy=0;entryPerimeter=0;" edge="1" parent="1" source="i0sY7tSdIwuUhT-nB4eU-59" target="3YkjBhUe68sp3YTSF8YO-18">
          <mxGeometry relative="1" as="geometry" />
        </mxCell>
        <mxCell id="3YkjBhUe68sp3YTSF8YO-26" style="edgeStyle=orthogonalEdgeStyle;rounded=0;orthogonalLoop=1;jettySize=auto;html=1;exitX=1;exitY=0.5;exitDx=0;exitDy=0;exitPerimeter=0;entryX=0.5;entryY=0;entryDx=0;entryDy=0;entryPerimeter=0;" edge="1" parent="1" source="i0sY7tSdIwuUhT-nB4eU-59" target="i0sY7tSdIwuUhT-nB4eU-55">
          <mxGeometry relative="1" as="geometry" />
        </mxCell>
        <mxCell id="3YkjBhUe68sp3YTSF8YO-31" value="KMS" style="sketch=0;points=[[0,0,0],[0.25,0,0],[0.5,0,0],[0.75,0,0],[1,0,0],[0,1,0],[0.25,1,0],[0.5,1,0],[0.75,1,0],[1,1,0],[0,0.25,0],[0,0.5,0],[0,0.75,0],[1,0.25,0],[1,0.5,0],[1,0.75,0]];outlineConnect=0;fontColor=#232F3E;fillColor=#DD344C;strokeColor=#ffffff;dashed=0;verticalLabelPosition=bottom;verticalAlign=top;align=center;html=1;fontSize=12;fontStyle=0;aspect=fixed;shape=mxgraph.aws4.resourceIcon;resIcon=mxgraph.aws4.key_management_service;" vertex="1" parent="1">
          <mxGeometry x="866" y="1610" width="78" height="78" as="geometry" />
        </mxCell>
        <mxCell id="3YkjBhUe68sp3YTSF8YO-32" value="S3" style="sketch=0;points=[[0,0,0],[0.25,0,0],[0.5,0,0],[0.75,0,0],[1,0,0],[0,1,0],[0.25,1,0],[0.5,1,0],[0.75,1,0],[1,1,0],[0,0.25,0],[0,0.5,0],[0,0.75,0],[1,0.25,0],[1,0.5,0],[1,0.75,0]];outlineConnect=0;fontColor=#232F3E;fillColor=#7AA116;strokeColor=#ffffff;dashed=0;verticalLabelPosition=bottom;verticalAlign=top;align=center;html=1;fontSize=12;fontStyle=0;aspect=fixed;shape=mxgraph.aws4.resourceIcon;resIcon=mxgraph.aws4.s3;" vertex="1" parent="1">
          <mxGeometry x="740" y="1610" width="78" height="78" as="geometry" />
        </mxCell>
        <mxCell id="3YkjBhUe68sp3YTSF8YO-34" value="ECR" style="sketch=0;points=[[0,0,0],[0.25,0,0],[0.5,0,0],[0.75,0,0],[1,0,0],[0,1,0],[0.25,1,0],[0.5,1,0],[0.75,1,0],[1,1,0],[0,0.25,0],[0,0.5,0],[0,0.75,0],[1,0.25,0],[1,0.5,0],[1,0.75,0]];outlineConnect=0;fontColor=#232F3E;fillColor=#ED7100;strokeColor=#ffffff;dashed=0;verticalLabelPosition=bottom;verticalAlign=top;align=center;html=1;fontSize=12;fontStyle=0;aspect=fixed;shape=mxgraph.aws4.resourceIcon;resIcon=mxgraph.aws4.ecr;" vertex="1" parent="1">
          <mxGeometry x="613" y="1610" width="78" height="78" as="geometry" />
        </mxCell>
      </root>
    </mxGraphModel>
  </diagram>
</mxfile>
